<svg xmlns="http://www.w3.org/2000/svg" viewBox="0 0 221.78 52.66"><defs><style>.cls-1{fill:#000001;}.cls-1,.cls-2{fill-rule:evenodd;}.cls-2{fill:#fff;}</style></defs><title>devxperience-alt-vazado</title><g id="Layer_2" data-name="Layer 2"><g id="Camada_1" data-name="Camada 1"><path class="cls-1" d="M19.29,22.42a1.61,1.61,0,0,0-.72-.36,4.75,4.75,0,0,0-1.13-.11H9.76v8.48h7.69a4.86,4.86,0,0,0,1.07-.1,1.6,1.6,0,0,0,.73-.35,1.47,1.47,0,0,0,.41-.68,3.68,3.68,0,0,0,.13-1.07V24.16a4.33,4.33,0,0,0-.11-1.06A1.37,1.37,0,0,0,19.29,22.42Z"/><path class="cls-1" d="M95.83,0,77.06,12.9H0V39.75H57.32L70.54,26.11,60.77,16H68l6,6.51,9.34-9.64h0Zm-73,28.33a8.27,8.27,0,0,1-.25,2.21A3,3,0,0,1,21.74,32a3.64,3.64,0,0,1-1.62.8,10.82,10.82,0,0,1-2.55.25H6.7V19.31H17.57a10.81,10.81,0,0,1,2.55.25,3.65,3.65,0,0,1,1.62.81,3,3,0,0,1,.86,1.46A8.28,8.28,0,0,1,22.85,24ZM51.41,32a3.22,3.22,0,0,1-.87,1,3,3,0,0,1-2.78,0,3.23,3.23,0,0,1-.87-1L40.61,21.91H30.26a4.4,4.4,0,0,0-1.09.11,1.5,1.5,0,0,0-.68.35,1.25,1.25,0,0,0-.34.64,4.65,4.65,0,0,0-.09,1v.93h11.7v2.44H28.06v1a4.77,4.77,0,0,0,.09,1,1.28,1.28,0,0,0,.33.64,1.31,1.31,0,0,0,.67.33,5.48,5.48,0,0,0,1.1.09h9.59V33H30.26a10.58,10.58,0,0,1-2.52-.25,3.63,3.63,0,0,1-1.61-.8,3,3,0,0,1-.86-1.45A8.27,8.27,0,0,1,25,28.33V24a8.28,8.28,0,0,1,.25-2.19,3,3,0,0,1,.86-1.46,3.64,3.64,0,0,1,1.61-.81,10.58,10.58,0,0,1,2.52-.25H42.71l6.5,10.61,6.48-10.61h3.65Z"/><path class="cls-2" d="M101,21.95H93.19v4.69h7.89a2.76,2.76,0,0,0,1.67-.37,1.82,1.82,0,0,0,.46-1.46v-.95a1.93,1.93,0,0,0-.47-1.51A2.69,2.69,0,0,0,101,21.95Z"/><path class="cls-2" d="M90.27,12.9,77.63,26l9.95,10.67H80.33L74,29.74l-9.7,10-12.5,12.9,18.79-12.9H221.78V12.9Zm16,12a7.22,7.22,0,0,1-.24,2,2.57,2.57,0,0,1-.84,1.29,3.54,3.54,0,0,1-1.58.67,13.45,13.45,0,0,1-2.5.19H93.19V33H90.12V19.31h11a11,11,0,0,1,2.46.23,3.6,3.6,0,0,1,1.59.77,2.9,2.9,0,0,1,.86,1.38,7.29,7.29,0,0,1,.25,2.05ZM135.94,33l-8-5v5h-3V27.48a1.41,1.41,0,0,1,1.41-1.41h9.15a10.43,10.43,0,0,0,1.24-.06,1.93,1.93,0,0,0,.79-.24,1,1,0,0,0,.41-.52,2.77,2.77,0,0,0,.12-.91V23.6a2.69,2.69,0,0,0-.12-.89,1,1,0,0,0-.4-.52,1.88,1.88,0,0,0-.79-.24,10.67,10.67,0,0,0-1.25-.06l-22.09,0a4.42,4.42,0,0,0-1.09.11,1.5,1.5,0,0,0-.67.35,1.24,1.24,0,0,0-.34.64,4.68,4.68,0,0,0-.09,1v.93h11.7v2.44h-11.7v1a4.8,4.8,0,0,0,.09,1,1.29,1.29,0,0,0,.33.64,1.31,1.31,0,0,0,.67.33,5.48,5.48,0,0,0,1.1.09h9.59V33h-9.59a10.59,10.59,0,0,1-2.52-.25,3.64,3.64,0,0,1-1.61-.8,3,3,0,0,1-.86-1.45,8.27,8.27,0,0,1-.25-2.21V24a8.29,8.29,0,0,1,.25-2.19,3,3,0,0,1,.86-1.46,3.64,3.64,0,0,1,1.61-.81,10.59,10.59,0,0,1,2.52-.25h22.29a14.52,14.52,0,0,1,2.48.18,4.12,4.12,0,0,1,1.68.64,2.65,2.65,0,0,1,1,1.27,5.86,5.86,0,0,1,.3,2v.95a5.15,5.15,0,0,1-.32,2,2.68,2.68,0,0,1-1,1.23,4.38,4.38,0,0,1-1.7.63,14.19,14.19,0,0,1-2.44.18h-2.42L141.22,33Zm10.31,0h-3.06V19.31h3.06Zm17.14,0H153.8a10.59,10.59,0,0,1-2.52-.25,3.63,3.63,0,0,1-1.61-.8,3,3,0,0,1-.86-1.45,8.27,8.27,0,0,1-.25-2.21V24a8.29,8.29,0,0,1,.25-2.19,3,3,0,0,1,.86-1.46,3.64,3.64,0,0,1,1.61-.81,10.59,10.59,0,0,1,2.52-.25h9.5v2.6h-9.5a4.41,4.41,0,0,0-1.09.11,1.5,1.5,0,0,0-.67.35,1.24,1.24,0,0,0-.34.64,4.68,4.68,0,0,0-.09,1v.93h11.7v2.44h-11.7v1a4.8,4.8,0,0,0,.09,1A1.29,1.29,0,0,0,152,30a1.31,1.31,0,0,0,.67.33,5.48,5.48,0,0,0,1.1.09h9.58Zm18-1a1.1,1.1,0,0,1-.42,1,1.91,1.91,0,0,1-1.11.29,2.59,2.59,0,0,1-.9-.15,2.26,2.26,0,0,1-.78-.49l-10-9.43V33h-2.84V20.28a1.08,1.08,0,0,1,.45-1A2,2,0,0,1,167,19a2.29,2.29,0,0,1,.87.14,1.7,1.7,0,0,1,.56.36l10.09,9.73V19.31h2.9Zm17-10.13H189a5,5,0,0,0-1.16.11,1.49,1.49,0,0,0-.71.37,1.42,1.42,0,0,0-.36.69,4.73,4.73,0,0,0-.1,1.06v4a4.7,4.7,0,0,0,.1,1.07,1.3,1.3,0,0,0,1.09,1,5.61,5.61,0,0,0,1.17.1h9.37V33h-9.53a10.59,10.59,0,0,1-2.52-.25,3.64,3.64,0,0,1-1.61-.8,3,3,0,0,1-.86-1.45,8.27,8.27,0,0,1-.25-2.21V24a8.28,8.28,0,0,1,.25-2.19,3,3,0,0,1,.86-1.46,3.65,3.65,0,0,1,1.61-.81,10.58,10.58,0,0,1,2.52-.25h9.53ZM215.08,33H205.5a10.58,10.58,0,0,1-2.52-.25,3.63,3.63,0,0,1-1.61-.8,3,3,0,0,1-.86-1.45,8.31,8.31,0,0,1-.25-2.21V24a8.33,8.33,0,0,1,.25-2.19,3,3,0,0,1,.86-1.46,3.64,3.64,0,0,1,1.61-.81,10.58,10.58,0,0,1,2.52-.25H215v2.6H205.5a4.4,4.4,0,0,0-1.09.11,1.5,1.5,0,0,0-.67.35,1.25,1.25,0,0,0-.34.64,4.68,4.68,0,0,0-.09,1v.93H215v2.44H203.3v1a4.8,4.8,0,0,0,.09,1,1.29,1.29,0,0,0,.33.64,1.31,1.31,0,0,0,.68.33,5.47,5.47,0,0,0,1.1.09h9.59Z"/></g></g></svg>