<svg xmlns="http://www.w3.org/2000/svg" viewBox="0 0 130 71.43"><defs><style>.cls-1{fill:#141414;}.cls-1,.cls-2{fill-rule:evenodd;}.cls-2{fill:#fff;}</style></defs><title>devx-alt-vazado</title><g id="Layer_2" data-name="Layer 2"><g id="Camada_1" data-name="Camada 1"><polygon class="cls-1" points="122.46 17.5 128.06 17.5 128.06 53.93 95.7 53.93 70.21 71.43 87.17 53.93 87.17 53.93 100.33 40.35 108.97 49.68 118.8 49.68 105.31 35.21 122.46 17.5"/><path class="cls-2" d="M26.17,30.42a2.18,2.18,0,0,0-1-.49,6.44,6.44,0,0,0-1.53-.15H13.24v11.5H23.67a6.64,6.64,0,0,0,1.45-.14,2.17,2.17,0,0,0,1-.48,2,2,0,0,0,.56-.92,5,5,0,0,0,.18-1.45V32.78a5.88,5.88,0,0,0-.15-1.43A1.86,1.86,0,0,0,26.17,30.42Z"/><path class="cls-2" d="M130,0,104.54,17.5H0V53.93H77.76L95.69,35.42,82.44,21.75H92.2l8.18,8.83L113,17.5h0ZM31,38.43a11.22,11.22,0,0,1-.34,3,4.11,4.11,0,0,1-1.16,2,5,5,0,0,1-2.2,1.09,14.69,14.69,0,0,1-3.46.34H9.09V26.19H23.84a14.68,14.68,0,0,1,3.46.34,5,5,0,0,1,2.2,1.09,4.1,4.1,0,0,1,1.16,2,11.25,11.25,0,0,1,.34,3Zm38.74,5a4.37,4.37,0,0,1-1.17,1.31,4.06,4.06,0,0,1-3.77,0,4.37,4.37,0,0,1-1.18-1.31L55.09,29.72H41a6,6,0,0,0-1.48.15,2,2,0,0,0-.92.48,1.69,1.69,0,0,0-.46.87,6.32,6.32,0,0,0-.12,1.37v1.26H53.94v3.31H38.07v1.31a6.48,6.48,0,0,0,.12,1.39,1.75,1.75,0,0,0,.45.88,1.78,1.78,0,0,0,.91.45A7.45,7.45,0,0,0,41,41.3h13v3.52H41a14.37,14.37,0,0,1-3.41-.34,4.94,4.94,0,0,1-2.19-1.09,4.1,4.1,0,0,1-1.16-2,11.23,11.23,0,0,1-.34-3V32.59a11.26,11.26,0,0,1,.34-3,4.1,4.1,0,0,1,1.16-2,4.94,4.94,0,0,1,2.19-1.09A14.37,14.37,0,0,1,41,26.19H57.93l8.82,14.4,8.8-14.4H80.5Z"/></g></g></svg>